# xmcd
#
# Track frame offsets: 
#        150
#        13590
#        28784
#        46693
#        60741
#        74728
#        88063
#        99678
#        115260
#        131680
#        146794
#
# Disc length: 2161 seconds
#
# Revision: 0
# Processed by: cddbd v1.5.2PL0 Copyright (c) Steve Scherf et al.
# Submitted via: ExactAudioCopy v0.95b4
#
DISCID=a0086f0b
DTITLE=Cuby and Blizzards - Cats Lost
DYEAR=2009
DGENRE=Blues
TTITLE0=Blues Is A Bad Habit
TTITLE1=Deadlines
TTITLE2=I'm In Your Corner
TTITLE3=Low Country Blues
TTITLE4=Baghdad Blues
TTITLE5=Peabody Hotel Room #13
TTITLE6=Devil Made Religion
TTITLE7=Mama Won't You Buy Me A Dream
TTITLE8=Stranger
TTITLE9=My Old Jimny
TTITLE10=More Than I Could Ask For
EXTD=
EXTT0=
EXTT1=
EXTT2=
EXTT3=
EXTT4=
EXTT5=
EXTT6=
EXTT7=
EXTT8=
EXTT9=
EXTT10=
PLAYORDER=
